<svg width="1068" height="352" viewBox="0 0 1068 352" fill="none" xmlns="http://www.w3.org/2000/svg">
<path fill-rule="evenodd" clip-rule="evenodd" d="M203.787 1.03972C229.746 6.36525 244.658 32.3182 240.984 65.0699C236.486 105.168 222.672 138.219 207.901 163.341C219.388 163.947 230.809 168.12 239.879 177.133C249.07 186.267 254.528 199.05 256.386 214.447C257.725 225.548 256.805 237.358 255.449 248.222C254.762 253.73 253.923 259.271 253.123 264.544L253.088 264.774L253.088 264.776C252.289 270.038 251.533 275.025 250.924 279.847C249.662 289.848 249.235 297.79 250.09 303.877C250.909 309.71 252.63 312.029 254.221 313.242C256.988 315.351 262 317.291 269.914 317.994C277.641 318.681 286.85 318.072 296.626 316.34C310.513 313.881 324.168 309.417 334.713 304.542C323.857 288.92 319.368 269.959 319.323 251.969C319.26 226.908 327.722 200.816 343.218 183.054C363.864 159.387 393.676 153.168 417.139 163.575C428.849 168.769 438.649 178.05 444.113 190.68C449.584 203.325 450.252 218.23 445.739 234.078C436.011 268.237 411.907 292.919 389.05 308.657C418.534 321.38 465.958 322.167 511.247 275.185C508.109 259.922 507.331 245.284 507.575 234.46C507.579 234.286 507.586 234.112 507.596 233.94C507.58 233.648 507.571 233.354 507.571 233.058C507.571 193.287 509.774 165.273 520.214 113.156C527.764 75.4661 540.291 45.7381 555.78 26.6952C571.034 7.9402 593.217 -4.25319 616.192 6.79154C636.961 16.776 642.143 39.6321 642.027 61.2439C641.905 83.833 636.135 112.329 627.234 144.102C612.173 197.859 567.754 257.413 548.18 282.061C547.643 282.737 547.062 283.358 546.444 283.922C547.247 286.208 548.13 288.452 549.099 290.635C556.849 308.094 568.88 319.613 589.015 320.115C616.556 320.803 640.826 308.401 661.41 290.995C666.512 286.681 671.311 282.122 675.795 277.48C675.111 275.139 674.49 272.756 673.927 270.336C672.83 265.89 672 261.443 671.458 257.051C668.59 237.028 669.007 215.216 671.008 193.851C673.954 162.409 680.527 130.156 686.808 102.847C693.954 71.7768 705.178 45.9287 719.059 28.5695C732.555 11.6909 752.296 -1.03492 774.354 6.52161C781.362 8.92273 788.148 12.8022 793.659 19.056C799.167 25.3065 802.581 32.9972 804.324 41.7322C807.667 58.4863 805.192 80.8725 797.808 110.265C784.659 162.607 753.729 224.297 735.402 252.659C735.264 252.873 735.121 253.083 734.975 253.288C734.667 253.907 734.316 254.513 733.92 255.101C728.616 262.988 721.481 273.113 712.614 283.819C715.048 288.609 717.87 293.218 721.027 297.467C731.54 311.619 743.712 319.221 754.895 319.684C773.693 320.463 789.621 313.938 803.684 299.833C818.199 285.272 830.959 262.32 841.348 230.356C841.531 229.791 841.743 229.244 841.982 228.716C842.079 227.831 842.252 226.942 842.505 226.057C845.688 214.934 853.011 198.845 865.17 185.226C877.511 171.404 895.822 159.15 920.298 159.15C921.087 159.15 921.865 159.156 922.634 159.167C922.881 159.156 923.129 159.15 923.379 159.15C928.112 159.15 932.592 159.489 936.824 160.132C942.441 160.853 947.421 161.949 951.946 163.348C960.511 165.995 966.772 169.531 971.747 172.523C972.537 172.998 973.268 173.441 973.952 173.855C977.8 176.188 980.172 177.625 983.138 178.775C986.133 179.935 990.083 180.874 996.524 180.705C1016.82 180.172 1033.96 165.656 1039.57 158.569C1045 151.702 1054.98 150.542 1061.84 155.977C1068.71 161.413 1069.87 171.385 1064.43 178.252C1055.65 189.342 1030.63 211.534 997.357 212.408C996.342 212.435 995.347 212.444 994.372 212.436C998.55 226.603 999.203 240.845 998.242 251.58C997.807 267.234 993.372 290.329 980.967 310.44C967.993 331.473 946.021 349.424 912.192 350.93C895.622 351.667 881.213 348.098 869.428 340.445C857.692 332.824 849.716 321.908 844.675 309.866C843.717 307.577 842.858 305.234 842.093 302.846C837.16 310.017 831.852 316.497 826.144 322.223C806.289 342.139 781.914 352.546 753.581 351.371C729.031 350.354 709.048 334.524 695.569 316.38C693.584 313.708 691.697 310.932 689.914 308.07C687.324 310.491 684.648 312.878 681.888 315.212C657.91 335.488 626.313 352.771 588.223 351.82C554.384 350.975 533.893 331.061 522.424 308.379C462.146 361.708 395.705 353.251 358.429 327.967C343.446 336.604 322.487 343.968 302.157 347.569C290.514 349.63 278.388 350.587 267.105 349.584C256.01 348.597 244.34 345.589 234.993 338.463C224.471 330.44 220.191 319.016 218.684 308.289C217.212 297.815 218.134 286.379 219.46 275.876C220.119 270.654 220.927 265.325 221.706 260.193L221.706 260.193L221.767 259.787C222.576 254.456 223.351 249.322 223.979 244.295C225.252 234.091 225.763 225.396 224.9 218.246C223.665 208.015 220.438 202.525 217.524 199.629C214.696 196.819 210.909 195.19 205.888 194.996C195.046 194.577 180.17 201.208 169.504 213.828C159.965 225.117 151.184 246.444 144.058 271.246C137.124 295.377 132.406 320.395 129.907 337.008C128.604 345.668 120.527 351.632 111.867 350.329C103.207 349.026 97.2426 340.949 98.5455 332.289C100.726 317.797 104.498 297.237 109.926 275.969C100.951 282.69 91.107 289.545 81.4083 296.047C59.9978 310.398 37.8928 323.939 24.008 332.063C16.4491 336.486 6.73614 333.943 2.31346 326.384C-2.10923 318.825 0.43315 309.112 7.99201 304.69C21.4167 296.835 42.9629 283.637 63.75 269.703C84.9328 255.504 103.979 241.423 113.414 231.694C114.396 230.682 115.479 229.829 116.633 229.135C117.79 218.172 118.956 206.424 120.162 194.281L120.162 194.277L120.162 194.275C121.625 179.538 123.145 164.22 124.778 149.016C127.099 127.406 129.637 106.181 132.534 87.81C135.383 69.7444 138.739 53.3382 142.968 41.9495C153.886 12.5515 178.665 -4.11409 203.787 1.03972ZM932.416 191.542C928.992 191.119 924.999 190.864 920.298 190.864C907.421 190.864 897.101 197.081 888.827 206.348C880.372 215.818 875.098 227.435 872.995 234.782C872.912 235.071 872.822 235.356 872.725 235.637C872.698 236.706 872.562 237.788 872.309 238.871C867.236 260.549 867.565 282.419 873.929 297.619C877.003 304.961 881.289 310.333 886.7 313.847C892.063 317.329 899.689 319.74 910.781 319.247C932.275 318.29 945.468 307.582 953.975 293.79C962.894 279.331 966.301 261.767 966.549 250.306L966.562 249.718L966.619 249.131C967.663 238.27 966.149 222.765 959.58 210.663C954.613 201.513 946.628 193.81 932.416 191.542ZM707.604 237.402C705.905 239.929 704.038 242.649 702.009 245.509C700.597 230.892 700.938 214.388 702.584 196.809C705.332 167.476 711.533 136.84 717.716 109.955C724.225 81.6546 733.923 60.7629 743.828 48.3754C754.118 35.5073 761.025 35.4793 764.075 36.5241C767.068 37.5493 768.752 38.7606 769.865 40.0238C770.981 41.2902 772.346 43.5426 773.223 47.9384C775.12 57.4459 774.201 74.0725 767.05 102.537C754.933 150.768 725.677 209.276 708.765 235.447C708.434 235.959 708.137 236.483 707.872 237.016C707.781 237.143 707.692 237.272 707.604 237.402ZM539.282 241.395C559.934 213.093 586.519 171.87 596.695 135.547C605.412 104.432 610.215 79.2735 610.313 61.0727C610.416 41.8947 605.467 36.8245 602.451 35.3746C598.998 33.7144 591.668 32.8327 580.384 46.7066C569.334 60.2926 558.296 84.5108 551.31 119.385C541.271 169.501 539.286 195.428 539.286 233.058C539.286 233.353 539.278 233.645 539.262 233.935C539.284 234.345 539.291 234.758 539.282 235.175C539.238 237.132 539.235 239.214 539.282 241.395ZM152.964 184.945C170.677 165.363 202.607 122.697 209.468 61.5345C211.961 39.3133 202.187 33.0863 197.414 32.107C191.803 30.9559 179.803 33.8606 172.698 52.9905C169.66 61.1722 166.684 74.8544 163.861 92.7503C161.087 110.341 158.615 130.95 156.311 152.402C155.161 163.108 154.05 174.066 152.964 184.945ZM362.099 288.236C354.808 278.8 351.073 266.055 351.037 251.889C350.99 233.163 357.504 214.92 367.116 203.902C379.455 189.758 394.654 188.296 404.28 192.566C409.115 194.71 412.879 198.356 415.006 203.272C417.126 208.172 418.074 215.43 415.237 225.391C406.927 254.573 383.282 275.92 362.099 288.236Z" fill="url(#paint0_linear_102_6)"/>
<defs>
<linearGradient id="paint0_linear_102_6" x1="0.14029" y1="311.943" x2="1122.66" y2="142.527" gradientUnits="userSpaceOnUse">
<stop stop-color="#6C99DF"/>
<stop offset="0.586308" stop-color="#51A5D3"/>
<stop offset="1" stop-color="#7FB6DD"/>
</linearGradient>
</defs>
</svg>
